<svg width="262" height="302" viewBox="0 0 262 302" fill="none" xmlns="http://www.w3.org/2000/svg">
<path d="M181.982 260.806H101.462C87.652 260.806 76.3535 249.553 76.3535 235.798V164.94C76.3535 151.185 87.652 139.931 101.462 139.931H181.983C195.793 139.931 207.092 151.185 207.092 164.94V235.798C207.092 249.552 195.792 260.806 181.982 260.806Z" fill="white"/>
<path d="M181.983 139.93C195.793 139.93 207.091 151.184 207.091 164.939V235.797C207.091 249.552 195.793 260.805 181.983 260.805H101.463C87.6524 260.805 76.354 249.552 76.354 235.797V164.939C76.354 151.184 87.6524 139.93 101.463 139.93H181.983ZM181.983 135.977H101.463C97.5516 135.977 93.7496 136.748 90.1618 138.266C86.7034 139.729 83.5953 141.82 80.9237 144.482C78.2522 147.143 76.1522 150.239 74.6826 153.683C73.1586 157.256 72.3853 161.043 72.3853 164.939V235.797C72.3853 239.692 73.1586 243.479 74.6826 247.053C76.1522 250.497 78.2511 253.593 80.9237 256.254C83.5953 258.915 86.7045 261.006 90.1618 262.47C93.7496 263.988 97.5516 264.758 101.463 264.758H181.984C185.895 264.758 189.697 263.988 193.285 262.47C196.743 261.006 199.851 258.916 202.523 256.254C205.194 253.593 207.294 250.496 208.764 247.053C210.288 243.479 211.061 239.692 211.061 235.797V164.939C211.061 161.043 210.288 157.256 208.764 153.683C207.294 150.238 205.195 147.143 202.523 144.482C199.851 141.821 196.742 139.729 193.285 138.266C189.697 136.748 185.894 135.977 181.983 135.977Z" fill="#317F8B"/>
<path d="M205.291 216.991C192.754 218.455 180.258 218.815 180.258 218.815C180.258 218.815 173.895 187.21 172.13 162.427C170.831 144.064 172.053 129.451 180.258 134.217C184.033 136.41 188.38 140.54 192.914 145.779C209.917 165.437 229.452 200.735 230.524 208.059C231.216 212.77 218.236 215.471 205.291 216.991Z" fill="white"/>
<path d="M178.58 220.921L178.237 219.221C178.199 219.027 174.307 199.607 171.789 179.499C170.303 167.643 169.577 157.855 169.63 150.407C169.701 140.233 171.184 134.463 174.297 132.248C175.663 131.276 177.988 130.521 181.299 132.445C192.214 138.787 206.067 158.992 213.354 170.471C218.214 178.129 222.866 186.178 226.455 193.135C228.984 198.037 232.097 204.553 232.567 207.762C232.704 208.694 232.613 210.107 231.399 211.545C229.645 213.626 226.002 215.254 219.932 216.668C215.481 217.705 209.763 218.597 202.934 219.32C191.374 220.543 180.428 220.868 180.319 220.871L178.58 220.921ZM177.416 135.362C177.018 135.362 176.81 135.511 176.695 135.591C175.349 136.549 171.315 142.505 175.88 178.969C177.948 195.483 180.95 211.538 181.947 216.699C185.467 216.558 193.82 216.152 202.521 215.231C222.724 213.09 227.237 210.092 228.24 208.903C228.518 208.574 228.495 208.422 228.485 208.356C227.899 204.364 220.278 189.069 209.867 172.667C197.81 153.672 186.641 140.304 179.22 135.993C178.379 135.504 177.806 135.362 177.416 135.362Z" fill="#317F8B"/>
<path d="M116.466 133.051L113.928 152.17L112.485 163.039L109.406 186.246C109.406 186.246 103.779 190.058 94.42 193.078C90.9229 194.208 86.8952 195.219 82.4502 195.882C75.184 196.971 66.7828 197.11 57.6807 195.255C34.2628 190.478 20.2089 173.153 14.1243 164.442C2.36433 147.628 0.554579 143.083 3.82369 136.005C6.31947 130.58 10.5955 129.59 10.5955 129.59C10.5955 129.59 10.3846 125.255 13.8295 123.713C24.1539 119.095 37.4537 131.428 37.4537 131.428C37.4537 131.428 37.9492 118.166 45.076 121.228C49.9859 123.338 51.0994 137.778 51.0994 137.778C51.0994 137.778 57.6898 146.212 68.1593 147.331C73.6305 147.916 81.2018 146.335 88.7208 144.039C88.8082 144.013 88.8966 143.988 88.9839 143.957C92.9912 142.725 96.9724 141.296 100.618 139.883C102.253 139.252 103.82 138.619 105.29 138.014C111.86 135.301 116.466 133.051 116.466 133.051Z" fill="white"/>
<path opacity="0.35" d="M14.1211 164.442C20.2114 173.15 34.263 190.479 57.6786 195.255C72.346 198.243 85.199 196.048 94.4213 193.074C103.781 190.058 109.406 186.244 109.406 186.244L109.819 167.93C109.819 167.93 103.442 161.809 97.5021 164.305C90.3652 167.304 92.6523 177.496 82.4595 180.331C54.1238 188.212 31.1051 173.813 23.6983 167.492C13.4226 158.724 10.742 153.201 9.29625 150.922C6.30382 146.206 3.99288 142.501 2.69 139.183C1.36217 144.796 4.19698 150.247 14.1211 164.442Z" fill="#317F8B"/>
<path d="M71.8094 198.732C66.9199 198.732 62.0509 198.243 57.2657 197.266C46.7394 195.119 36.9185 190.286 28.0773 182.897C22.3872 178.142 17.1224 172.327 12.4302 165.616C6.70388 157.425 3.06397 151.798 1.4039 147.278C-0.187 142.947 -0.0293842 139.432 1.94592 135.145C3.8906 130.923 6.83088 128.982 8.60774 128.149C8.89802 125.979 10.0285 123.163 12.9836 121.842C21.3792 118.085 31.0674 123.898 35.8628 127.476C35.9093 127.234 35.9615 126.985 36.017 126.733C36.8119 123.182 38.184 120.772 40.0946 119.572C41.2682 118.834 43.2265 118.196 45.8969 119.345C48.6059 120.51 50.5823 123.942 51.9408 129.837C52.6359 132.857 52.9704 135.692 53.0962 136.948C54.5545 138.592 60.2536 144.42 68.3816 145.288C83.219 146.872 115.234 131.363 115.556 131.206C116.239 130.872 117.051 130.94 117.668 131.383C118.285 131.825 118.608 132.57 118.509 133.32L111.454 186.512C111.377 187.093 111.056 187.612 110.569 187.941C110.333 188.101 104.675 191.9 95.267 194.961C89.7561 196.755 84.0865 197.923 78.4168 198.434C76.2136 198.633 74.0093 198.732 71.8094 198.732ZM11.0729 131.585C10.8064 131.657 7.65751 132.597 5.69468 136.857C3.0515 142.595 3.70124 145.939 15.815 163.267C27.2041 179.557 41.8227 189.922 58.0923 193.24C72.9162 196.264 85.7919 193.72 93.9834 191.055C100.928 188.795 105.716 186.099 107.487 185.023L113.923 136.504C110.561 138.033 105.062 140.435 98.8899 142.739C85.1512 147.867 74.7372 150.098 67.9416 149.373C56.7305 148.177 49.7636 139.413 49.4722 139.04C49.2239 138.722 49.0742 138.338 49.0436 137.936C49.0413 137.902 48.7612 134.395 47.9085 130.711C46.4718 124.5 44.7528 123.327 44.2607 123.116C43.0292 122.586 42.4974 122.919 42.2967 123.045C40.5629 124.131 39.6241 128.646 39.5107 131.505C39.4789 132.307 38.98 133.018 38.235 133.324C37.4889 133.63 36.6339 133.477 36.0431 132.929C35.9206 132.816 23.6209 121.585 14.6731 125.589C12.6116 126.512 12.6491 129.295 12.6547 129.495C12.716 130.509 12.0696 131.375 11.0729 131.585Z" fill="#317F8B"/>
<path d="M39.1507 131.426C39.1983 132.003 39.1121 132.528 38.9965 132.983C38.9386 133.218 38.8672 133.421 38.7946 133.63C38.7209 133.826 38.6404 134.025 38.561 134.202C38.2356 134.931 37.8841 135.536 37.5496 136.122C37.2139 136.705 36.8908 137.259 36.5903 137.815L36.3703 138.233C36.3011 138.373 36.2274 138.512 36.1605 138.653L35.9655 139.078L35.7795 139.507L35.6106 139.943L35.4541 140.385C35.4008 140.533 35.3611 140.685 35.3135 140.835C35.2636 140.985 35.2262 141.139 35.1853 141.291C35.0289 141.906 34.8939 142.538 34.8157 143.19C34.7306 143.84 34.6762 144.508 34.6603 145.186C34.6433 145.528 34.6501 145.869 34.6467 146.216C34.6411 146.39 34.6558 146.562 34.6569 146.737C34.6603 146.912 34.666 147.087 34.6649 147.265V147.277C34.6649 147.414 34.5537 147.524 34.4154 147.524C34.319 147.524 34.2362 147.47 34.1954 147.39C33.8643 146.751 33.565 146.087 33.3336 145.393C33.0898 144.702 32.9152 143.981 32.7871 143.244C32.5354 141.769 32.541 140.208 32.8177 138.683L32.9322 138.114C32.9764 137.927 33.0252 137.74 33.0717 137.552C33.1216 137.365 33.1772 137.182 33.2293 136.996C33.2837 136.812 33.3484 136.632 33.4085 136.451C33.6568 135.728 33.9641 135.041 34.2805 134.397C34.5957 133.755 34.9313 133.148 35.2035 132.622C35.4904 132.089 35.6525 131.656 35.7478 131.422L35.9473 130.933C36.2943 130.085 37.2661 129.678 38.1177 130.023C38.7198 130.269 39.0996 130.824 39.1507 131.426Z" fill="#317F8B"/>
<path d="M55.4131 196.666C54.8927 196.666 54.3903 196.379 54.1431 195.883C53.7939 195.185 54.0796 194.338 54.7804 193.99C60.4988 191.156 64.4063 182.313 66.0777 168.416C67.3738 157.646 66.8352 147.629 66.8295 147.53C66.7864 146.752 67.384 146.086 68.1653 146.041C68.9432 145.997 69.6156 146.594 69.6598 147.372C69.6655 147.474 70.2177 157.704 68.8967 168.714C68.1154 175.23 66.8397 180.758 65.1048 185.146C62.8597 190.824 59.8105 194.651 56.0436 196.518C55.8406 196.618 55.6252 196.666 55.4131 196.666Z" fill="#317F8B"/>
<g opacity="0.35">
<g opacity="0.35">
<g opacity="0.35">
<g opacity="0.35">
<path opacity="0.35" d="M238.347 287.537V287.249C236.08 287.346 238.347 287.537 238.347 287.537Z" fill="#317F8B"/>
</g>
</g>
</g>
</g>
<path d="M209.737 252.854H73.564C73.564 252.854 74.394 229.448 82.4494 195.881C85.6777 182.418 90.0717 167.322 96.0384 151.444C97.4717 147.633 98.9991 143.776 100.618 139.882C105.146 129.018 110.427 117.892 116.585 106.767H166.717C171.807 115.966 176.299 125.16 180.26 134.216C182.822 140.071 185.164 145.865 187.299 151.556C196.618 176.366 202.09 199.264 205.292 216.99C209.242 238.858 209.737 252.854 209.737 252.854Z" fill="white"/>
<path d="M191.043 169.013C193.675 171.94 194.878 175.346 195.989 178.767C196.547 180.478 197.097 182.192 197.622 183.915C197.885 184.775 198.155 185.635 198.39 186.503C198.631 187.369 198.866 188.239 199.102 189.108L199.791 191.718C200.018 192.588 200.247 193.458 200.46 194.333L201.713 199.585C201.917 200.461 202.141 201.332 202.34 202.21L202.938 204.841L203.551 207.469C203.758 208.345 203.971 209.219 204.164 210.097L205.345 215.364C205.548 216.24 205.723 217.123 205.91 218.003L206.463 220.645L206.74 221.965L206.878 222.626L207.008 223.288L207.526 225.936C207.698 226.819 207.876 227.701 208.063 228.581C208.242 229.463 208.423 230.345 208.611 231.226C209.4 234.742 209.976 238.303 210.215 241.91C210.246 242.361 210.281 242.81 210.303 243.263L210.361 244.62C210.39 245.526 210.415 246.43 210.401 247.342C210.396 248.251 210.375 249.161 210.316 250.075C210.263 250.988 210.187 251.902 210.049 252.823C210.023 253 209.856 253.122 209.678 253.096C209.557 253.078 209.461 252.995 209.421 252.889L209.419 252.885C208.769 251.162 208.237 249.432 207.734 247.702C207.487 246.837 207.249 245.969 207.019 245.103L206.688 243.801C206.583 243.366 206.476 242.932 206.367 242.498C205.945 240.759 205.573 239.017 205.239 237.266C205.078 236.39 204.931 235.511 204.798 234.63C204.654 233.75 204.521 232.869 204.384 231.989C204.25 231.107 204.109 230.227 203.966 229.347C203.814 228.468 203.645 227.593 203.474 226.718L202.961 224.092L202.832 223.436L202.695 222.781L202.421 221.472L201.872 218.853C201.686 217.981 201.513 217.105 201.312 216.236L200.139 211.013C199.951 210.142 199.731 209.276 199.524 208.409L198.883 205.81L198.226 203.216C198.12 202.783 197.999 202.353 197.883 201.923L197.53 200.632L196.114 195.471C195.624 193.755 195.123 192.043 194.645 190.324C194.407 189.464 194.169 188.605 193.938 187.743L193.766 187.097L193.583 186.454L193.224 185.165C192.744 183.447 192.289 181.721 191.841 179.993L191.512 178.695C191.402 178.262 191.281 177.833 191.165 177.401C190.935 176.539 190.743 175.664 190.597 174.776C190.453 173.886 190.352 172.982 190.314 172.058C190.293 171.596 190.291 171.129 190.308 170.654C190.326 170.18 190.357 169.7 190.441 169.204L190.444 169.185C190.476 168.998 190.654 168.871 190.842 168.903C190.923 168.917 190.993 168.958 191.043 169.013Z" fill="#317F8B"/>
<path d="M73.2446 252.844C73.0348 252.379 72.8908 251.917 72.7558 251.453C72.6209 250.987 72.52 250.528 72.4304 250.065C72.249 249.139 72.1515 248.218 72.097 247.3C72.0721 246.84 72.0551 246.382 72.0562 245.924C72.0573 245.467 72.0755 245.012 72.097 244.557L72.1741 243.191C72.198 242.736 72.2263 242.281 72.2637 241.827C72.4055 240.011 72.5438 238.192 72.757 236.385C72.8534 235.48 72.9611 234.576 73.0677 233.671C73.1198 233.22 73.1901 232.77 73.2514 232.318L73.443 230.967L73.8433 228.266C73.9839 227.367 74.1472 226.473 74.3003 225.576C74.6132 223.784 74.908 221.989 75.2652 220.206C75.6122 218.42 75.9297 216.63 76.2846 214.848C76.6452 213.067 76.9967 211.283 77.3437 209.499C77.4322 209.053 77.5115 208.606 77.6079 208.162L77.8937 206.829L78.464 204.164L79.0344 201.498C79.0832 201.276 79.1274 201.053 79.1784 200.832L79.3349 200.169L79.6478 198.842L80.8986 193.535C80.9995 193.092 81.1129 192.652 81.2251 192.211C81.334 191.77 81.4451 191.329 81.5494 190.888C81.7604 190.003 81.969 189.119 82.1697 188.232C82.3749 187.347 82.5756 186.459 82.7877 185.575C82.9918 184.688 83.2481 183.816 83.5043 182.943C83.7663 182.073 84.0441 181.206 84.3355 180.344C84.6281 179.482 84.9387 178.625 85.2528 177.77L85.7382 176.491C85.8198 176.279 85.9105 176.069 85.999 175.858C86.0885 175.647 86.1747 175.436 86.2677 175.226C86.634 174.387 87.0048 173.551 87.3994 172.723C87.7894 171.893 88.1965 171.07 88.624 170.255C89.0515 169.439 89.4949 168.629 89.987 167.837C90.0811 167.684 90.2818 167.637 90.4349 167.732C90.5392 167.796 90.5948 167.91 90.5891 168.025V168.03C90.385 171.757 89.6842 175.303 88.9925 178.848C88.8145 179.733 88.6331 180.616 88.4335 181.494C88.2328 182.372 88.0174 183.245 87.7883 184.113C87.3098 185.846 86.829 187.577 86.3278 189.305C86.0772 190.169 85.8334 191.034 85.5919 191.901C85.4694 192.333 85.3549 192.768 85.2381 193.202C85.1236 193.637 85.0056 194.07 84.9081 194.51L83.671 199.76L83.3615 201.072L83.2072 201.729C83.1562 201.948 83.112 202.168 83.0644 202.387L82.4997 205.024L81.935 207.661L81.6526 208.981C81.5585 209.42 81.4791 209.863 81.3918 210.303C79.9427 217.349 78.9686 224.48 78.0218 231.597L77.6544 234.264C77.5399 235.154 77.4253 236.044 77.3006 236.933L76.5704 242.267C76.4377 243.156 76.3311 244.045 76.2109 244.934C76.1485 245.378 76.0828 245.823 76 246.265C75.9184 246.708 75.8379 247.151 75.7381 247.592C75.5396 248.476 75.2936 249.357 75.0022 250.235C74.857 250.675 74.6835 251.115 74.5055 251.553C74.3229 251.991 74.1245 252.432 73.8796 252.869L73.8773 252.873C73.782 253.043 73.5677 253.104 73.3976 253.009C73.3262 252.968 73.2752 252.91 73.2446 252.844Z" fill="#317F8B"/>
<path d="M112.784 223.323C105.018 226.455 92.9982 225.8 84.8044 224.811C79.89 224.22 76.4395 219.702 77.164 214.824C77.8251 210.373 81.7587 207.136 86.2706 207.346C93.9348 207.704 105.432 207.872 112.713 206.263" fill="white"/>
<g opacity="0.35">
<g opacity="0.35">
<g opacity="0.35">
<g opacity="0.35">
<path opacity="0.35" d="M112.786 223.322C105.018 226.458 92.9981 225.796 84.8043 224.815C79.8899 224.222 76.4405 219.702 77.165 214.827C77.309 213.832 77.6231 212.898 78.0688 212.046C79.3626 214.507 81.813 216.32 84.8043 216.682C92.9833 217.67 104.983 218.325 112.752 215.209L112.786 223.322Z" fill="#317F8B"/>
</g>
</g>
</g>
</g>
<path d="M97.3432 227.682C92.8494 227.682 88.3818 227.313 84.5559 226.852C81.6258 226.499 79.0257 225.017 77.2341 222.679C75.4391 220.337 74.6896 217.441 75.1228 214.525C75.5174 211.867 76.8804 209.463 78.96 207.754C81.0419 206.043 83.6726 205.17 86.3668 205.297C97.6573 205.823 106.855 205.455 112.265 204.26C113.351 204.02 116.05 204.011 117.643 209.113C119.261 214.296 119.082 223.002 113.558 225.229C109.003 227.064 103.152 227.682 97.3432 227.682ZM85.852 209.392C82.525 209.392 79.697 211.805 79.2049 215.125C78.9362 216.934 79.4011 218.732 80.5146 220.185C81.6247 221.634 83.236 222.553 85.0526 222.772C96.7694 224.183 106.344 223.703 112.011 221.419C113.693 220.74 114.176 218.024 114.307 216.887C114.76 212.912 113.546 209.239 112.785 208.35C105.401 209.897 94.2737 209.778 86.1752 209.4C86.0663 209.394 85.9586 209.392 85.852 209.392Z" fill="#317F8B"/>
<path d="M172.189 223.323C179.956 226.455 191.975 225.8 200.169 224.811C205.083 224.22 208.534 219.702 207.809 214.824C207.148 210.373 203.215 207.136 198.703 207.346C191.039 207.704 179.542 207.872 172.261 206.263" fill="white"/>
<g opacity="0.35">
<g opacity="0.35">
<g opacity="0.35">
<g opacity="0.35">
<path opacity="0.35" d="M200.166 224.815C191.973 225.796 179.954 226.458 172.185 223.322L172.219 215.134C179.987 218.25 191.986 217.595 200.166 216.606C203.144 216.252 205.581 214.451 206.882 212.004C207.34 212.864 207.662 213.811 207.812 214.826C208.531 219.702 205.082 224.222 200.166 224.815Z" fill="#317F8B"/>
</g>
</g>
</g>
</g>
<path d="M187.63 227.682C181.821 227.682 175.971 227.065 171.415 225.228C165.892 223.001 165.713 214.294 167.331 209.112C168.923 204.011 171.623 204.019 172.709 204.259C178.12 205.455 187.317 205.823 198.607 205.295C201.303 205.17 203.932 206.043 206.014 207.753C208.093 209.462 209.456 211.866 209.851 214.524C210.284 217.44 209.533 220.336 207.739 222.678C205.948 225.016 203.348 226.498 200.418 226.851C196.592 227.312 192.123 227.682 187.63 227.682ZM172.19 208.35C171.429 209.239 170.214 212.912 170.668 216.888C170.797 218.024 171.28 220.74 172.964 221.419C178.63 223.704 188.205 224.185 199.922 222.772C201.737 222.553 203.35 221.634 204.46 220.185C205.574 218.732 206.038 216.935 205.77 215.125C205.262 211.699 202.266 209.239 198.801 209.4C190.7 209.778 179.574 209.895 172.19 208.35Z" fill="#317F8B"/>
<path d="M175.191 200.626V227.965C175.191 233.037 171.023 237.188 165.93 237.188H115.381C110.295 237.188 106.127 233.037 106.127 227.965V200.626C106.127 195.554 110.295 191.409 115.381 191.409H165.93C168.928 191.409 171.604 192.848 173.302 195.063C174.486 196.61 175.191 198.54 175.191 200.626Z" fill="white"/>
<g opacity="0.35">
<g opacity="0.35">
<g opacity="0.35">
<g opacity="0.35">
<path opacity="0.35" d="M175.189 200.626V227.965C175.189 233.037 171.023 237.186 165.931 237.186H115.383C110.29 237.186 106.124 233.037 106.124 227.965V217.739C113.716 225.448 128.646 230.288 142.339 230.36C146.739 230.384 150.288 226.918 150.602 222.546C150.606 222.502 150.609 222.458 150.613 222.415C150.949 218.579 154.121 215.474 157.976 215.197C162.367 214.882 166.074 218.112 166.508 222.31C173.136 214.16 171.194 199.995 173.302 195.063C174.487 196.613 175.189 198.539 175.189 200.626Z" fill="#317F8B"/>
</g>
</g>
</g>
</g>
<path d="M165.932 239.242H115.381C109.14 239.242 104.062 234.184 104.062 227.968V200.626C104.062 194.41 109.14 189.353 115.381 189.353H165.932C172.173 189.353 177.251 194.41 177.251 200.626V227.968C177.251 234.184 172.173 239.242 165.932 239.242ZM115.381 193.462C111.415 193.462 108.188 196.676 108.188 200.626V227.968C108.188 231.919 111.415 235.133 115.381 235.133H165.932C169.898 235.133 173.125 231.919 173.125 227.968V200.626C173.125 196.676 169.898 193.462 165.932 193.462H115.381Z" fill="#317F8B"/>
<path d="M158.565 222.248C162.974 222.248 166.548 218.688 166.548 214.297C166.548 209.905 162.974 206.346 158.565 206.346C154.156 206.346 150.582 209.905 150.582 214.297C150.582 218.688 154.156 222.248 158.565 222.248Z" fill="#22A7F0"/>
<g opacity="0.7">
<g opacity="0.7">
<g opacity="0.7">
<g opacity="0.7">
<path opacity="0.7" d="M166.547 214.297C166.547 214.841 166.495 215.37 166.392 215.886C165.655 212.25 162.43 209.515 158.567 209.515C154.698 209.515 151.473 212.25 150.736 215.886C150.633 215.37 150.581 214.842 150.581 214.297C150.581 209.903 154.156 206.348 158.567 206.348C162.971 206.348 166.547 209.903 166.547 214.297Z" fill="white"/>
</g>
</g>
</g>
</g>
<g opacity="0.35">
<g opacity="0.35">
<g opacity="0.35">
<g opacity="0.35">
<path opacity="0.35" d="M166.546 214.296C166.546 218.686 162.973 222.244 158.565 222.244C154.157 222.244 150.584 218.686 150.584 214.296C150.584 213.28 150.776 212.311 151.132 211.419C152.282 214.385 155.178 216.484 158.566 216.484C161.954 216.484 164.849 214.385 166 211.419C166.354 212.311 166.546 213.279 166.546 214.296Z" fill="#317F8B"/>
</g>
</g>
</g>
</g>
<path d="M158.565 223.788C153.311 223.788 149.036 219.53 149.036 214.297C149.036 209.063 153.311 204.805 158.565 204.805C163.82 204.805 168.095 209.063 168.095 214.297C168.095 219.53 163.82 223.788 158.565 223.788ZM158.565 207.887C155.017 207.887 152.13 210.763 152.13 214.297C152.13 217.831 155.017 220.706 158.565 220.706C162.113 220.706 165 217.831 165 214.297C165 210.763 162.113 207.887 158.565 207.887Z" fill="#317F8B"/>
<path d="M135.945 238.728C135.09 238.728 134.398 238.038 134.398 237.187V218.462L124.289 210.881V191.407C124.289 190.556 124.982 189.867 125.836 189.867C126.69 189.867 127.382 190.557 127.382 191.407V209.343L137.491 216.924V237.187C137.491 238.038 136.799 238.728 135.945 238.728Z" fill="#317F8B"/>
<path d="M141.648 251.907C150.59 251.907 159.189 248.602 165.905 242.721C175.208 234.576 190.869 224.862 208.154 231.093C215.091 233.591 219.817 238.176 223.042 243.248C231.347 224.082 248.768 222.933 256.309 233.796C256.309 233.796 243.634 294.024 239.503 295.365C233.585 297.285 219.365 295.266 219.365 295.266C219.365 295.266 169.897 288.595 141.648 288.595C113.4 288.595 63.9312 295.266 63.9312 295.266C63.9312 295.266 49.7117 297.284 43.7937 295.365C39.6628 294.024 26.9878 233.796 26.9878 233.796C34.5273 222.932 51.9501 224.082 60.255 243.248C63.4787 238.174 68.2061 233.591 75.1423 231.093C92.4279 224.862 108.089 234.576 117.391 242.721C124.108 248.601 132.706 251.907 141.648 251.907Z" fill="white"/>
<g opacity="0.35">
<path d="M256.31 233.794C256.31 233.794 243.634 294.024 239.503 295.365C233.588 297.286 219.365 295.268 219.365 295.268C219.365 295.268 169.898 288.595 141.648 288.595C113.403 288.595 63.9307 295.268 63.9307 295.268C63.9307 295.268 49.7123 297.286 43.7978 295.365C39.6669 294.024 26.9907 233.794 26.9907 233.794C28.2335 232.006 29.7394 230.542 31.4312 229.433C35.4952 247.092 41.2601 270.15 43.7978 270.972C49.7135 272.888 63.9307 270.869 63.9307 270.869C63.9307 270.869 113.403 257.525 141.648 257.525C169.898 257.525 219.365 270.869 219.365 270.869C219.365 270.869 233.588 272.888 239.503 270.972C242.041 270.15 247.806 247.092 251.87 229.433C253.562 230.543 255.068 232.007 256.31 233.794Z" fill="#317F8B"/>
</g>
<path d="M51.4204 298.242C48.318 298.242 45.287 298.01 43.1552 297.319C41.7015 296.847 40.4792 295.242 38.1852 288.124C36.8427 283.958 35.2313 278.156 33.3978 270.881C30.0958 257.782 26.8777 243.091 25.6474 237.383C25.0033 234.394 25.9864 231.303 28.2146 229.318C32.4918 225.504 38.2249 224.036 43.9422 225.289C47.5458 226.08 51.0519 227.953 54.0817 230.708C56.5911 232.991 58.7728 235.841 60.5916 239.212C64.2826 234.521 68.9294 231.147 74.4425 229.161C80.6893 226.909 87.2253 226.462 93.8701 227.831C99.2347 228.938 104.69 231.232 110.083 234.652C111.045 235.262 111.327 236.531 110.716 237.489C110.105 238.447 108.829 238.728 107.867 238.119C96.7673 231.081 85.9939 229.367 75.8463 233.026C70.1234 235.088 65.4641 238.896 62 244.348C61.5906 244.992 60.8558 245.356 60.095 245.298C59.333 245.238 58.6662 244.763 58.3623 244.063C54.8925 236.055 49.3136 230.675 43.0554 229.304C38.649 228.339 34.2426 229.46 30.9666 232.382C29.8395 233.386 29.3474 234.973 29.6819 236.523C30.843 241.911 33.8865 255.811 37.057 268.511C38.7998 275.492 40.3442 281.172 41.6482 285.39C43.4739 291.298 44.4275 293.031 44.7665 293.514C49.427 294.815 59.909 293.765 63.6419 293.235C63.6464 293.234 63.651 293.234 63.6555 293.233C64.151 293.166 113.587 286.543 141.649 286.543C169.713 286.543 219.148 293.166 219.643 293.233C219.648 293.234 219.653 293.234 219.658 293.235C223.392 293.765 233.873 294.815 238.533 293.514C238.866 293.04 239.794 291.357 241.558 285.691C242.832 281.604 244.339 276.097 246.04 269.323C249.072 257.244 251.978 244.102 253.441 237.343C253.921 235.129 253.087 232.858 251.318 231.56C247.942 229.081 243.758 228.341 239.539 229.477C233.493 231.104 228.307 236.285 224.937 244.064C224.635 244.763 223.968 245.239 223.205 245.299C222.442 245.359 221.709 244.993 221.3 244.349C217.836 238.898 213.177 235.089 207.454 233.027C197.217 229.337 186.352 231.11 175.157 238.296C174.199 238.911 172.923 238.636 172.305 237.682C171.688 236.729 171.964 235.457 172.922 234.842C178.348 231.359 183.838 229.014 189.24 227.872C195.951 226.454 202.551 226.888 208.858 229.162C214.371 231.149 219.018 234.523 222.71 239.215C226.585 232.041 232.089 227.225 238.463 225.509C243.843 224.06 249.421 225.06 253.767 228.252C256.84 230.508 258.295 234.416 257.475 238.208C255.926 245.369 252.856 259.241 249.697 271.695C247.906 278.757 246.332 284.384 245.02 288.417C242.782 295.298 241.58 296.856 240.143 297.321C233.87 299.356 219.802 297.406 219.085 297.304C218.31 297.2 169.353 290.653 141.65 290.653C113.943 290.653 64.9913 297.2 64.2157 297.304C63.7394 297.369 57.4472 298.242 51.4204 298.242Z" fill="#317F8B"/>
<path d="M235.83 295.365H239.504C243.817 295.365 247.728 292.845 249.484 288.922C254.984 276.656 265.011 249.702 255.619 233.255C255.346 232.775 255.053 232.313 254.744 231.87C254.744 231.87 245.727 223.701 239.248 235.257C233.198 246.053 220.497 292.213 235.83 295.365Z" fill="#AFAFB2"/>
<g opacity="0.7">
<g opacity="0.7">
<g opacity="0.7">
<g opacity="0.7">
<path opacity="0.7" d="M235.931 242.952C236.093 242.693 236.255 242.449 236.413 242.222C244.377 230.666 255.466 238.835 255.466 238.835C255.846 239.278 256.208 239.74 256.541 240.22C257.653 241.803 258.542 243.483 259.237 245.241C258.788 240.921 257.667 236.837 255.619 233.256C255.346 232.776 255.053 232.314 254.744 231.871C254.744 231.871 245.727 223.702 239.249 235.258C238.265 237.008 237.112 239.68 235.931 242.952Z" fill="white"/>
</g>
</g>
</g>
</g>
<path d="M259.189 246.473C259.096 246.473 259.002 246.466 258.907 246.45L236.369 242.702C235.442 242.549 234.816 241.676 234.971 240.752C235.125 239.829 236.002 239.206 236.928 239.359L259.466 243.107C260.392 243.26 261.018 244.133 260.864 245.057C260.725 245.887 260.005 246.473 259.189 246.473Z" fill="#317F8B"/>
<path d="M259.045 258.602C258.969 258.602 258.893 258.597 258.816 258.586L232.451 255.055C231.52 254.931 230.867 254.079 230.992 253.151C231.117 252.224 231.973 251.574 232.905 251.698L259.27 255.228C260.201 255.353 260.854 256.205 260.729 257.132C260.615 257.984 259.884 258.602 259.045 258.602Z" fill="#317F8B"/>
<path d="M256.72 270.481C256.651 270.481 256.582 270.477 256.511 270.469L229.747 267.206C228.815 267.092 228.152 266.247 228.265 265.319C228.38 264.39 229.227 263.728 230.16 263.842L256.924 267.105C257.856 267.219 258.519 268.064 258.406 268.992C258.301 269.852 257.567 270.481 256.72 270.481Z" fill="#317F8B"/>
<path d="M252.476 283.436C252.425 283.436 252.372 283.434 252.32 283.429L228.392 281.279C227.457 281.195 226.767 280.371 226.851 279.439C226.935 278.507 227.763 277.82 228.698 277.904L252.626 280.055C253.562 280.138 254.252 280.963 254.167 281.895C254.088 282.774 253.345 283.436 252.476 283.436Z" fill="#317F8B"/>
<g opacity="0.35">
<g opacity="0.35">
<g opacity="0.35">
<g opacity="0.35">
<path opacity="0.35" d="M235.828 295.365H239.502C243.816 295.365 247.727 292.845 249.483 288.922C250.905 285.742 252.634 281.584 254.251 276.872C252.046 280.518 247.564 282.83 242.644 282.83H238.265C232.033 281.755 229.688 275.667 229.595 267.688C227.488 281.156 228.067 293.769 235.828 295.365Z" fill="#317F8B"/>
</g>
</g>
</g>
</g>
<path d="M239.504 297.059H235.83C235.714 297.059 235.6 297.048 235.486 297.024C232.517 296.413 230.272 294.495 228.815 291.323C225.381 283.844 227.05 270.814 229.056 261.201C231.507 249.453 235.292 238.841 237.764 234.432C240.037 230.377 242.9 228.043 246.272 227.495C251.445 226.655 255.71 230.455 255.889 230.617C255.983 230.701 256.067 230.797 256.14 230.9C256.479 231.383 256.802 231.895 257.1 232.418C261.393 239.935 262.304 250.218 259.808 262.98C257.778 273.354 253.919 283.189 251.039 289.612C249.013 294.136 244.486 297.059 239.504 297.059ZM236.015 293.671H239.504C243.144 293.671 246.452 291.536 247.931 288.233C250.739 281.97 254.499 272.393 256.467 262.334C258.804 250.39 258.021 240.888 254.142 234.093C253.931 233.722 253.705 233.361 253.47 233.015C252.833 232.497 249.938 230.322 246.801 230.842C244.512 231.223 242.471 232.986 240.735 236.084C238.447 240.166 234.744 250.598 232.387 261.891C229.699 274.778 229.529 284.731 231.91 289.915C232.876 292.019 234.22 293.25 236.015 293.671Z" fill="#317F8B"/>
<path d="M47.4701 295.365H43.7961C39.4827 295.365 35.5718 292.845 33.8153 288.922C28.3158 276.656 18.2884 249.702 27.6808 233.255C27.954 232.775 28.2466 232.313 28.5562 231.87C28.5562 231.87 37.5731 223.701 44.0513 235.257C50.1019 246.053 62.8019 292.213 47.4701 295.365Z" fill="#AFAFB2"/>
<g opacity="0.7">
<g opacity="0.7">
<g opacity="0.7">
<g opacity="0.7">
<path opacity="0.7" d="M47.3668 242.952C47.2046 242.693 47.0425 242.449 46.8849 242.222C38.9202 230.666 27.8315 238.835 27.8315 238.835C27.4516 239.278 27.0899 239.74 26.7565 240.22C25.6442 241.803 24.7552 243.483 24.0601 245.241C24.5091 240.921 25.6305 236.837 27.6784 233.256C27.9517 232.776 28.2442 232.314 28.5538 231.871C28.5538 231.871 37.5708 223.702 44.0489 235.258C45.0309 237.008 46.1852 239.68 47.3668 242.952Z" fill="white"/>
</g>
</g>
</g>
</g>
<path d="M24.1095 246.473C23.2931 246.473 22.573 245.886 22.4335 245.058C22.2793 244.135 22.9041 243.262 23.8317 243.108L46.3696 239.36C47.296 239.207 48.1725 239.829 48.3268 240.753C48.481 241.676 47.8562 242.549 46.9286 242.703L24.3907 246.451C24.2966 246.467 24.2025 246.473 24.1095 246.473Z" fill="#317F8B"/>
<path d="M24.2519 258.602C23.4128 258.602 22.6825 257.984 22.568 257.134C22.4433 256.206 23.0964 255.354 24.0274 255.229L50.3935 251.698C51.3256 251.572 52.1805 252.224 52.3064 253.151C52.4311 254.079 51.778 254.931 50.847 255.056L24.4809 258.587C24.4038 258.597 24.3279 258.602 24.2519 258.602Z" fill="#317F8B"/>
<path d="M26.5789 270.481C25.7318 270.481 24.9982 269.852 24.8927 268.992C24.7782 268.064 25.4416 267.219 26.3748 267.105L53.1389 263.842C54.071 263.729 54.9192 264.389 55.0337 265.318C55.1482 266.247 54.4849 267.092 53.5516 267.206L26.7875 270.469C26.7172 270.478 26.6469 270.481 26.5789 270.481Z" fill="#317F8B"/>
<path d="M30.8237 283.436C29.9529 283.436 29.2113 282.774 29.1319 281.894C29.048 280.963 29.7374 280.139 30.6729 280.055L54.601 277.904C55.5377 277.821 56.3632 278.507 56.4482 279.439C56.5321 280.371 55.8427 281.194 54.9072 281.279L30.9791 283.429C30.9269 283.434 30.8748 283.436 30.8237 283.436Z" fill="#317F8B"/>
<g opacity="0.35">
<g opacity="0.35">
<g opacity="0.35">
<g opacity="0.35">
<path opacity="0.35" d="M47.4688 295.365H43.7949C39.4814 295.365 35.5705 292.845 33.8141 288.922C32.3921 285.742 30.6629 281.584 29.0459 276.872C31.2514 280.518 35.7327 282.83 40.6528 282.83H45.032C51.2641 281.755 53.609 275.667 53.702 267.688C55.8089 281.156 55.2294 293.769 47.4688 295.365Z" fill="#317F8B"/>
</g>
</g>
</g>
</g>
<path d="M47.4692 297.059H43.7952C38.8139 297.059 34.2861 294.136 32.2609 289.612C29.3819 283.19 25.522 273.355 23.4923 262.981C20.9965 250.22 21.907 239.936 26.2001 232.418C26.4983 231.895 26.8215 231.385 27.1594 230.901C27.232 230.797 27.3159 230.702 27.41 230.618C27.5891 230.455 31.8538 226.656 37.0268 227.496C40.3991 228.044 43.2623 230.378 45.5347 234.433C48.0066 238.842 51.7917 249.454 54.2432 261.202C56.2491 270.815 57.9183 283.845 54.4836 291.324C53.0265 294.497 50.7825 296.414 47.8127 297.025C47.6993 297.048 47.5837 297.059 47.4692 297.059ZM29.8275 233.017C29.5928 233.361 29.3683 233.722 29.1574 234.092C25.2771 240.888 24.4935 250.389 26.8306 262.333C28.799 272.394 32.558 281.97 35.3668 288.233C36.8465 291.537 40.1542 293.672 43.7941 293.672H47.2832C49.0782 293.251 50.423 292.02 51.3891 289.915C53.7692 284.731 53.6003 274.778 50.9118 261.891C48.5555 250.598 44.852 240.166 42.5638 236.084C40.8277 232.986 38.7867 231.223 36.4984 230.842C33.3665 230.323 30.4727 232.491 29.8275 233.017Z" fill="#317F8B"/>
<path d="M88.9405 293.819C88.699 293.819 88.4541 293.762 88.225 293.643C87.4675 293.249 87.175 292.317 87.5719 291.562C94.0318 279.269 94.1271 265.443 87.8553 250.47C83.1246 239.178 76.3505 231.45 76.2825 231.373C75.7178 230.735 75.779 229.762 76.4197 229.198C77.0603 228.636 78.0378 228.696 78.6025 229.334C78.8916 229.66 85.7394 237.457 90.6743 249.196C93.5862 256.123 95.21 262.977 95.5025 269.57C95.8699 277.858 94.1237 285.738 90.3126 292.991C90.0359 293.519 89.4973 293.819 88.9405 293.819Z" fill="#317F8B"/>
<path d="M194.985 293.819C194.427 293.819 193.89 293.518 193.613 292.992C189.802 285.739 188.056 277.859 188.423 269.571C188.715 262.978 190.339 256.124 193.251 249.197C198.186 237.458 205.034 229.66 205.323 229.335C205.889 228.697 206.866 228.636 207.507 229.199C208.148 229.762 208.209 230.735 207.643 231.373C207.575 231.45 200.801 239.177 196.07 250.47C189.798 265.444 189.894 279.269 196.354 291.562C196.749 292.317 196.457 293.247 195.7 293.643C195.471 293.762 195.226 293.819 194.985 293.819Z" fill="#317F8B"/>
<g opacity="0.35">
<path d="M192.914 145.779C191.129 147.813 189.253 149.745 187.298 151.559C182.657 155.863 177.571 159.525 172.131 162.428C162.94 167.338 152.745 170.092 142.008 170.143C131.518 170.189 121.534 167.651 112.484 163.039C106.558 160.013 101.034 156.104 96.0372 151.446C93.5517 149.124 91.1942 146.622 88.9819 143.957C92.9892 142.724 96.9705 141.296 100.616 139.883C105.144 129.019 110.424 117.893 116.583 106.768H166.715C171.805 115.967 176.297 125.161 180.257 134.217C184.033 136.41 188.381 140.54 192.914 145.779Z" fill="#317F8B"/>
</g>
<path d="M218.204 96.1751C217.331 96.2688 216.547 95.6398 216.453 94.7701L211.56 49.4202C211.466 48.5506 212.098 47.7702 212.971 47.6765C222.129 46.6961 230.352 53.2963 231.336 62.4185L233.006 77.8833C233.99 87.0055 227.363 95.1948 218.204 96.1751Z" fill="white"/>
<path d="M218.03 96.575C217.58 96.575 217.146 96.4236 216.791 96.1379C216.378 95.807 216.121 95.336 216.064 94.812L211.171 49.4621C211.115 48.938 211.267 48.423 211.599 48.0131C211.931 47.6031 212.404 47.3456 212.93 47.2891C222.291 46.2873 230.721 53.0558 231.727 62.3779L233.395 77.8428C233.883 82.3581 232.575 86.7921 229.713 90.3283C226.852 93.8644 222.779 96.0792 218.246 96.5648L218.204 96.1763L218.246 96.5648C218.174 96.5716 218.102 96.575 218.03 96.575ZM214.766 47.9701C214.186 47.9701 213.602 48.0006 213.014 48.0639C212.695 48.0978 212.41 48.2536 212.209 48.501C212.008 48.7494 211.916 49.06 211.95 49.3774L216.843 94.7273C216.877 95.0446 217.034 95.3292 217.283 95.5291C217.533 95.729 217.844 95.8205 218.163 95.7867C222.489 95.3236 226.374 93.2105 229.104 89.837C231.835 86.4635 233.082 82.2327 232.617 77.9241L230.949 62.4592C230.051 54.1525 222.973 47.9701 214.766 47.9701Z" fill="#317F8B"/>
<g opacity="0.35">
<g opacity="0.35">
<g opacity="0.35">
<g opacity="0.35">
<path opacity="0.35" d="M232.223 70.6315L233.008 77.8845C233.991 87.0032 227.364 95.1948 218.204 96.1785C217.331 96.2733 216.548 95.6386 216.454 94.7701L215.148 82.7149C215.452 83.2378 216.047 83.5586 216.687 83.4953L217.767 83.3767C225.003 82.6031 230.664 77.3232 232.223 70.6315Z" fill="#317F8B"/>
</g>
</g>
</g>
</g>
<path d="M218.028 98.3583C217.171 98.3583 216.345 98.0691 215.668 97.5259C214.884 96.8968 214.393 96.0001 214.285 95.0028L209.392 49.6529C209.284 48.6557 209.574 47.6754 210.205 46.8938C210.837 46.1123 211.737 45.6233 212.738 45.516C223.078 44.4091 232.395 51.888 233.506 62.187L235.174 77.6519C235.713 82.6404 234.268 87.5398 231.107 91.4475C227.946 95.3541 223.446 97.8015 218.436 98.3368C218.301 98.3504 218.164 98.3583 218.028 98.3583ZM217.974 94.0146H217.973C217.973 94.0146 217.973 94.0146 217.974 94.0146ZM213.796 49.7862L218.56 93.9412C222.174 93.4081 225.406 91.5695 227.712 88.72C230.142 85.7169 231.252 81.9515 230.838 78.1161L229.17 62.6512C228.337 54.9306 221.506 49.2712 213.796 49.7862Z" fill="#317F8B"/>
<path d="M62.6815 63.7624C63.5546 63.6687 64.3382 64.2978 64.4323 65.1674L69.3252 110.517C69.4193 111.387 68.7877 112.167 67.9146 112.261C58.7558 113.241 50.5337 106.641 49.5495 97.5191L47.8815 82.0542C46.895 72.932 53.5228 64.7427 62.6815 63.7624Z" fill="white"/>
<path d="M66.1185 112.748C57.5165 112.749 50.0972 106.269 49.1583 97.5609L47.4903 82.096C46.4845 72.774 53.2801 64.3757 62.6396 63.374L62.6816 63.7625L62.6396 63.374C63.7248 63.2576 64.7045 64.0437 64.8213 65.1257L69.7142 110.476C69.831 111.558 69.0418 112.532 67.9555 112.649C67.3397 112.715 66.7251 112.748 66.1185 112.748ZM62.8516 64.1431C62.8086 64.1431 62.7666 64.1453 62.7224 64.1499C53.7927 65.1053 47.3089 73.1184 48.2693 82.0124L49.9373 97.4773C50.8966 106.371 58.9407 112.829 67.8715 111.874C68.5281 111.804 69.0055 111.214 68.9352 110.56L64.0423 65.2104C63.9765 64.5982 63.4549 64.1431 62.8516 64.1431Z" fill="#317F8B"/>
<g opacity="0.35">
<g opacity="0.35">
<g opacity="0.35">
<g opacity="0.35">
<path opacity="0.35" d="M67.9718 97.9359L69.328 110.517C69.4233 111.387 68.786 112.167 67.914 112.261C63.1061 112.774 58.5523 111.201 55.1709 108.267C52.1173 105.617 50.0195 101.852 49.5512 97.5214L48.8481 91.0048C52.0651 96.444 58.287 99.8062 65.0021 99.089L66.6633 98.9106C67.2688 98.8451 67.7484 98.4554 67.9718 97.9359Z" fill="#317F8B"/>
</g>
</g>
</g>
</g>
<path d="M66.1173 114.53C56.6127 114.531 48.4166 107.372 47.3791 97.7506L45.7111 82.2858C44.5998 71.9868 52.1087 62.7076 62.449 61.6008C64.515 61.3795 66.3792 62.8748 66.6015 64.9337L71.4944 110.285C71.7166 112.345 70.2153 114.199 68.147 114.421C67.4655 114.495 66.7874 114.53 66.1173 114.53ZM62.3265 65.9976C54.6839 67.127 49.2161 74.1021 50.0484 81.8227L51.7164 97.2876C52.5498 105.008 59.3806 110.666 67.0902 110.153L62.3265 65.9976Z" fill="#317F8B"/>
<path d="M140.451 157.693C183.549 157.693 218.488 122.895 218.488 79.9681C218.488 37.0417 183.549 2.24292 140.451 2.24292C97.3523 2.24292 62.4141 37.0417 62.4141 79.9681C62.4141 122.895 97.3523 157.693 140.451 157.693Z" fill="white"/>
<path d="M140.375 158.085C130.807 158.085 121.46 156.377 112.549 152.994C103.072 149.398 94.4875 144.069 87.0297 137.16C79.5719 130.249 73.6187 122.104 69.3336 112.95C64.8977 103.472 62.4552 93.3233 62.0731 82.7849C61.691 72.2465 63.393 61.9486 67.1315 52.1771C70.742 42.7387 76.0918 34.188 83.0292 26.7599C89.9666 19.3319 98.1467 13.4014 107.338 9.1334C116.854 4.71519 127.044 2.28247 137.624 1.90186C148.205 1.52126 158.544 3.21648 168.355 6.94011C177.831 10.5361 186.416 15.8646 193.874 22.7743C201.332 29.6851 207.285 37.8303 211.57 46.9841C216.006 56.462 218.448 66.6108 218.831 77.1492C219.213 87.6876 217.511 97.9855 213.772 107.757C210.162 117.195 204.812 125.746 197.873 133.174C190.935 140.602 182.757 146.532 173.566 150.8C164.051 155.218 153.861 157.65 143.28 158.031C142.309 158.067 141.34 158.085 140.375 158.085ZM140.488 2.63145C139.544 2.63145 138.603 2.6484 137.652 2.68228C94.8663 4.22052 61.3134 40.141 62.8566 82.7555C63.6039 103.399 72.3782 122.517 87.5626 136.587C102.044 150.007 120.705 157.303 140.381 157.304C141.336 157.304 142.29 157.287 143.25 157.252C163.976 156.508 183.171 147.768 197.297 132.644C211.424 117.521 218.792 97.8228 218.045 77.1797C216.537 35.5116 182.018 2.63145 140.488 2.63145Z" fill="#317F8B"/>
<g opacity="0.35">
<g opacity="0.35">
<g opacity="0.35">
<g opacity="0.35">
<path opacity="0.35" d="M217.301 66.4403C217.925 69.9347 218.307 73.5149 218.44 77.1662C219.988 120.064 186.334 156.094 143.264 157.645C100.194 159.187 64.0194 125.667 62.4625 82.7703C62.4171 81.537 62.4012 80.3014 62.416 79.0828C69.0427 116.705 102.672 144.647 142.079 143.232C183.911 141.726 216.855 107.698 217.301 66.4403Z" fill="#317F8B"/>
</g>
</g>
</g>
</g>
<path d="M140.375 159.867C130.588 159.867 121.028 158.119 111.912 154.66C102.221 150.981 93.4385 145.532 85.8117 138.464C78.1849 131.396 72.0957 123.065 67.7131 113.702C63.1751 104.007 60.6771 93.626 60.287 82.8482C59.8969 72.0703 61.6375 61.5364 65.4622 51.5412C69.1554 41.8883 74.6266 33.1411 81.7228 25.5447C88.8189 17.9484 97.1816 11.8824 106.583 7.51842C116.317 2.99856 126.74 0.510498 137.561 0.121985C148.383 -0.266528 158.958 1.4671 168.993 5.27656C178.685 8.95501 187.467 14.4044 195.094 21.4721C202.721 28.5399 208.81 36.8715 213.193 46.2342C217.73 55.9289 220.229 66.3104 220.619 77.0882C221.009 87.8661 219.268 98.4 215.443 108.395C211.75 118.048 206.279 126.795 199.183 134.392C192.087 141.988 183.722 148.053 174.321 152.418C164.588 156.938 154.165 159.426 143.344 159.814C142.353 159.849 141.362 159.867 140.375 159.867ZM140.489 4.41483C139.567 4.41483 138.647 4.43177 137.718 4.46452C95.9184 5.96662 63.1388 41.0593 64.6469 82.6923C65.3772 102.86 73.9497 121.537 88.7837 135.284C102.932 148.394 121.162 155.523 140.385 155.523C141.317 155.523 142.252 155.506 143.188 155.472C163.437 154.745 182.189 146.206 195.991 131.431C209.793 116.657 216.991 97.4129 216.26 77.2452C214.785 36.536 181.06 4.41483 140.489 4.41483Z" fill="#317F8B"/>
<path d="M218.262 79.1697C219.043 94.359 214.817 108.715 206.951 120.814C201.054 129.885 175.748 146.526 143.542 148.457C113.68 150.248 85.6822 135.769 78.8854 127.346C69.8185 116.11 64.1432 102.26 63.3619 87.0709C61.2948 46.8745 95.1119 28.4416 137.889 26.2596C180.664 24.0776 216.195 38.9733 218.262 79.1697Z" fill="#17A2B8"/>
<path d="M138.359 150.105C123.51 150.105 110.595 146.419 102.023 143.125C91.1679 138.956 81.6259 133.129 77.715 128.282C68.1163 116.387 62.6349 102.162 61.8627 87.1467C61.3501 77.1831 63 68.1423 66.7635 60.2749C70.307 52.8705 75.742 46.4556 82.9197 41.2061C96.0324 31.6153 115.013 25.931 137.81 24.7688C160.607 23.6067 180.071 27.3292 194.099 35.5354C201.777 40.027 207.842 45.8558 212.126 52.8615C216.678 60.3042 219.246 69.1305 219.758 79.094C220.53 94.1094 216.535 108.816 208.207 121.626C204.748 126.948 196.154 133.471 185.782 138.648C176.671 143.196 161.961 148.849 143.63 149.948C141.85 150.054 140.09 150.105 138.359 150.105ZM145.859 27.546C143.278 27.546 140.647 27.6138 137.964 27.7505C115.754 28.8832 97.3342 34.3687 84.6943 43.6129C70.5826 53.9344 63.9083 68.5308 64.8574 86.9942C65.5967 101.378 70.8513 115.009 80.052 126.411C82.7893 129.804 90.4683 135.487 103.102 140.34C112.397 143.91 126.941 147.958 143.451 146.968C161.275 145.898 175.58 140.401 184.44 135.978C196.314 130.051 203.31 123.668 205.693 120.003C213.676 107.724 217.506 93.6305 216.766 79.2465C215.817 60.7831 207.68 46.9423 192.583 38.1104C180.694 31.1556 164.654 27.546 145.859 27.546Z" fill="#317F8B"/>
<g opacity="0.5">
<g opacity="0.5">
<g opacity="0.5">
<g opacity="0.5">
<path d="M202.726 76.2644C203.7 68.73 200.046 62.0523 194.565 61.3494C189.083 60.6465 183.85 66.1844 182.876 73.7188C181.902 81.2532 185.556 87.9308 191.038 88.6337C196.519 89.3367 201.752 83.7987 202.726 76.2644Z" fill="white"/>
</g>
</g>
</g>
</g>
<g opacity="0.5">
<g opacity="0.5">
<g opacity="0.5">
<g opacity="0.5">
<path d="M187.215 104.269C188.137 100.906 186.536 97.5402 183.638 96.7515C180.741 95.9628 177.643 98.0499 176.721 101.413C175.798 104.777 177.399 108.142 180.297 108.931C183.195 109.72 186.292 107.633 187.215 104.269Z" fill="white"/>
</g>
</g>
</g>
</g>
<g opacity="0.35">
<path d="M201.27 42.4384C211.201 50.954 217.429 63.0239 218.261 79.1675C219.042 94.3602 214.814 108.715 206.954 120.814C201.054 129.885 175.746 146.525 143.54 148.461C132.169 149.146 121.071 147.468 111.306 144.659C150.842 141.44 181.661 121.029 188.975 109.778C198.961 94.4212 204.323 76.1995 203.328 56.9252C203.068 51.7728 202.361 46.9492 201.27 42.4384Z" fill="#317F8B"/>
</g>
<path d="M67.4316 54.5872C66.9916 54.5872 66.5494 54.4505 66.1707 54.1671C65.2794 53.4985 65.0742 52.2595 65.6808 51.3458C68.9193 46.0467 73.0547 41.2038 77.9715 36.9528C82.7589 32.8147 88.3265 29.2017 94.5189 26.2144C100.582 23.2904 107.283 20.9481 114.436 19.2517C121.524 17.5712 129.091 16.5163 136.929 16.1165C144.637 15.7235 152.19 15.9889 159.378 16.9037C166.632 17.8275 173.529 19.4166 179.875 21.6246C186.369 23.8845 192.311 26.8029 197.536 30.2984C202.908 33.8921 207.553 38.1183 211.347 42.8606C212.01 43.5914 212.078 44.7106 211.457 45.5238C210.757 46.4431 209.44 46.6215 208.517 45.9236L208.297 45.7609L208.132 45.5509C194.083 27.9142 168.208 18.7073 137.143 20.2919C105.906 21.8855 81.1544 34.0152 69.2346 53.5707L69.1801 53.66L69.1087 53.7537C68.6982 54.2992 68.0689 54.5872 67.4316 54.5872Z" fill="#317F8B"/>
<g opacity="0.5">
<g opacity="0.5">
<g opacity="0.5">
<g opacity="0.5">
<path d="M81.9845 110.096C81.9845 110.096 67.4464 71.08 88.0907 54.1831C108.735 37.2861 139.608 35.7761 138.988 37.7842C138.988 37.7842 105.237 47.7681 93.2478 75.3593C84.0029 96.6361 81.9845 110.096 81.9845 110.096Z" fill="white"/>
</g>
</g>
</g>
</g>
<path d="M211.175 299.837H72.7721C68.2908 299.837 64.6577 296.218 64.6577 291.755C64.6577 289.183 66.7509 287.099 69.3329 287.099H214.614C217.196 287.099 219.289 289.183 219.289 291.755C219.289 296.22 215.656 299.837 211.175 299.837Z" fill="#E6E9FA"/>
<g opacity="0.3">
<g opacity="0.3">
<g opacity="0.3">
<g opacity="0.3">
<path opacity="0.3" d="M219.287 291.756C219.287 292.639 219.143 293.488 218.88 294.284C218.153 292.655 216.518 291.526 214.615 291.526H69.334C68.0448 291.526 66.8745 292.044 66.0286 292.892C65.6261 293.293 65.2961 293.761 65.0648 294.285C64.8017 293.489 64.6577 292.642 64.6577 291.757C64.6577 290.473 65.1782 289.308 66.0298 288.465C66.8757 287.618 68.0459 287.099 69.3352 287.099H214.615C217.198 287.098 219.287 289.182 219.287 291.756Z" fill="white"/>
</g>
</g>
</g>
</g>
<g opacity="0.35">
<g opacity="0.35">
<g opacity="0.35">
<g opacity="0.35">
<path opacity="0.35" d="M219.286 291.756C219.286 293.986 218.379 296.01 216.909 297.468C215.444 298.931 213.412 299.836 211.174 299.836H72.774C68.2928 299.836 64.6562 296.22 64.6562 291.756C64.6562 290.898 64.8887 290.092 65.3003 289.398C66.5272 292.291 69.4153 294.325 72.7729 294.325H211.173C213.412 294.325 215.444 293.421 216.907 291.956C217.64 291.227 218.233 290.359 218.64 289.398C219.055 290.092 219.286 290.898 219.286 291.756Z" fill="#317F8B"/>
</g>
</g>
</g>
</g>
<path d="M211.175 301.893H72.7727C67.1609 301.893 62.5957 297.346 62.5957 291.756C62.5957 288.057 65.6188 285.046 69.3335 285.046H214.614C218.329 285.046 221.352 288.057 221.352 291.756C221.352 297.345 216.787 301.893 211.175 301.893ZM69.3324 289.154C67.8923 289.154 66.7198 290.321 66.7198 291.756C66.7198 295.08 69.4344 297.784 72.7716 297.784H211.175C214.512 297.784 217.227 295.08 217.227 291.756C217.227 290.322 216.056 289.154 214.614 289.154H69.3324Z" fill="#317F8B"/>
<path d="M227.368 196.109L213.831 287.096H70.1185L69.6286 283.804L56.5749 196.109C56.1474 193.228 58.3903 190.644 61.309 190.644H222.633C225.558 190.644 227.795 193.228 227.368 196.109Z" fill="#FF66AC"/>
<path d="M227.368 196.109L213.831 287.096H70.1185L69.6286 283.804L56.5749 196.109C56.1474 193.228 58.3903 190.644 61.309 190.644H222.633C225.558 190.644 227.795 193.228 227.368 196.109Z" fill="#E6E9FA"/>
<g opacity="0.5">
<g opacity="0.5">
<g opacity="0.5">
<g opacity="0.5">
<path opacity="0.5" d="M61.6779 201.757C61.2504 198.876 63.4933 196.292 66.412 196.292H227.341L227.368 196.11C227.796 193.229 225.559 190.645 222.634 190.645H61.3105C58.3917 190.645 56.1488 193.229 56.5763 196.11L69.629 283.806L70.1188 287.098H74.3812L61.6779 201.757Z" fill="white"/>
</g>
</g>
</g>
</g>
<g opacity="0.35">
<g opacity="0.35">
<g opacity="0.35">
<g opacity="0.35">
<path opacity="0.35" d="M218.098 190.644H206.77C211.065 206.317 208.695 241.71 180.985 260.208C146.198 283.428 83.5053 283.28 70.1953 283.804L70.6852 287.096H209.295L222.832 196.109C223.26 193.228 221.022 190.644 218.098 190.644Z" fill="#317F8B"/>
</g>
</g>
</g>
</g>
<path d="M215.609 289.154H68.3387L54.5377 196.409C54.2452 194.445 54.8246 192.457 56.1263 190.954C57.4281 189.451 59.3184 188.589 61.3107 188.589H222.637C224.63 188.589 226.519 189.451 227.821 190.954C229.123 192.457 229.702 194.445 229.41 196.409L215.609 289.154ZM71.8981 285.044H212.049L225.329 195.806C225.447 195.014 225.222 194.244 224.697 193.638C224.172 193.031 223.441 192.698 222.637 192.698H61.3107C60.5067 192.698 59.7753 193.032 59.2503 193.638C58.7253 194.244 58.5008 195.014 58.6187 195.806L71.8981 285.044Z" fill="#317F8B"/>
<g opacity="0.3">
<g opacity="0.3">
<g opacity="0.3">
<g opacity="0.3">
<path opacity="0.3" d="M81.5581 265.839C76.1062 253.87 72.1363 233.438 73.031 221.413C73.9256 209.388 80.9276 213.068 83.098 228.471C88.8731 269.463 83.9915 271.183 81.5581 265.839Z" fill="white"/>
</g>
</g>
</g>
</g>
<path d="M160.749 228.547C160.925 227.011 161.129 225.458 160.827 223.896C160.692 223.727 160.568 223.553 160.433 223.384C159.986 223.223 159.552 223.014 159.087 222.898C155.817 222.057 152.501 221.724 149.134 222.013C144.742 222.39 140.711 223.739 137.244 226.52C135.989 227.523 134.845 228.656 133.674 229.755C133.359 230.053 133.118 230.177 132.677 229.976C131.639 229.506 130.521 229.296 129.386 229.24C126.342 229.102 123.625 230.082 121.09 231.667C118.344 233.39 116.131 235.693 114.069 238.159C113.191 239.203 113.533 240.368 114.839 240.807C115.663 241.075 116.488 241.338 117.312 241.607C119.287 242.244 121.258 242.875 123.228 243.511C123.223 243.572 123.229 243.603 123.22 243.634C123.204 243.672 123.187 243.716 123.16 243.754C122.338 244.806 122.537 245.78 123.404 246.695C123.497 246.796 123.577 246.917 123.659 247.027C124.112 247.621 124.576 248.222 125.057 248.84C124.4 249.345 123.755 249.774 123.185 250.293C122.897 250.554 122.643 250.933 122.534 251.309C122.349 251.916 122.664 252.536 123.206 252.854C123.781 253.199 124.373 253.184 124.908 252.8C125.587 252.319 126.236 251.797 126.927 251.272C127.579 252.128 128.197 252.938 128.817 253.738C129.528 254.649 130.018 254.805 131.12 254.501C131.321 254.439 131.519 254.396 131.756 254.338C131.772 254.573 131.79 254.762 131.8 254.938C131.941 257.775 132.07 260.617 132.227 263.446C132.298 264.788 133.362 265.421 134.578 264.846C135.677 264.33 136.775 263.784 137.852 263.202C140.334 261.857 142.593 260.21 144.395 258.02C146.65 255.264 147.899 252.187 147.315 248.55C147.29 248.407 147.41 248.162 147.535 248.088C148.641 247.378 149.778 246.713 150.885 245.997C153.389 244.371 155.402 242.259 156.976 239.736C159.114 236.306 160.295 232.543 160.749 228.547ZM124.857 240.824C122.577 240.084 120.213 239.316 117.784 238.529C120.293 235.873 122.949 233.553 126.525 232.574C128.071 232.15 129.857 232.186 130.911 232.613C128.909 235.335 126.902 238.057 124.857 240.824ZM144.038 252.499C143.458 254.341 142.351 255.84 140.988 257.178C139.294 258.821 137.323 260.047 135.191 261.166C135.063 258.557 134.931 256.004 134.802 253.505C138.026 252.256 141.178 251.037 144.346 249.811C144.469 250.68 144.319 251.602 144.038 252.499ZM155.942 235.031C154.904 237.47 153.543 239.69 151.602 241.529C150.104 242.939 148.406 244.071 146.616 245.077C141.765 247.805 136.566 249.685 131.25 251.275C130.991 251.35 130.832 251.336 130.661 251.099C130.29 250.574 129.874 250.068 129.481 249.55C129.455 249.52 129.446 249.472 129.409 249.379C129.545 249.271 129.69 249.163 129.836 249.052C132.87 246.732 135.918 244.42 138.952 242.096C139.828 241.433 139.867 240.293 139.055 239.636C138.488 239.174 137.741 239.181 137.087 239.671C135.261 241.058 133.44 242.445 131.619 243.837C130.26 244.872 128.913 245.902 127.503 246.979C127.018 246.349 126.551 245.774 126.129 245.169C126.058 245.06 126.131 244.787 126.228 244.653C127.845 242.249 129.448 239.833 131.131 237.472C132.796 235.127 134.688 232.961 136.77 230.973C138.722 229.095 140.838 227.437 143.395 226.449C145.034 225.813 146.726 225.38 148.474 225.194C148.632 225.172 148.863 225.33 148.975 225.475C150.752 227.764 152.507 230.055 154.268 232.351C154.796 233.034 155.318 233.731 155.862 234.407C156.026 234.61 156.046 234.784 155.942 235.031ZM156.995 231.831C155.24 229.54 153.525 227.312 151.808 225.073C151.811 225.022 151.825 224.963 151.833 224.907C153.833 225.146 155.836 225.39 157.86 225.631C157.823 227.803 157.501 229.792 156.995 231.831Z" fill="#317F8B"/>
<path d="M155.865 234.405C155.32 233.73 154.799 233.033 154.271 232.35C152.511 230.054 150.754 227.762 148.978 225.474C148.865 225.329 148.635 225.17 148.476 225.193C146.729 225.379 145.037 225.812 143.397 226.448C140.839 227.436 138.725 229.094 136.773 230.972C134.691 232.96 132.799 235.126 131.134 237.471C129.451 239.833 127.848 242.249 126.231 244.651C126.133 244.786 126.061 245.059 126.132 245.167C126.553 245.773 127.02 246.348 127.505 246.978C128.916 245.9 130.263 244.869 131.622 243.836C133.443 242.443 135.264 241.055 137.089 239.67C137.744 239.179 138.49 239.174 139.058 239.635C139.87 240.293 139.832 241.433 138.955 242.094C135.92 244.419 132.872 246.731 129.839 249.05C129.693 249.162 129.547 249.269 129.412 249.378C129.449 249.472 129.458 249.519 129.484 249.548C129.877 250.067 130.293 250.573 130.663 251.098C130.835 251.335 130.993 251.349 131.253 251.274C136.569 249.684 141.768 247.804 146.619 245.076C148.407 244.071 150.107 242.938 151.605 241.527C153.545 239.689 154.907 237.468 155.944 235.03C156.046 234.784 156.026 234.61 155.865 234.405ZM150.541 237.902C148.222 239.642 144.941 239.217 143.199 236.939C141.446 234.664 141.888 231.398 144.186 229.634C146.441 227.904 149.724 228.351 151.482 230.627C153.221 232.889 152.797 236.203 150.541 237.902Z" fill="white"/>
<path d="M156.995 231.829C155.238 229.542 153.524 227.312 151.808 225.073C151.814 225.02 151.825 224.965 151.833 224.907C153.832 225.148 155.837 225.391 157.863 225.632C157.825 227.801 157.499 229.792 156.995 231.829Z" fill="#DB2C2C"/>
<path d="M130.912 232.614C128.907 235.333 126.9 238.057 124.858 240.826C122.574 240.082 120.21 239.316 117.782 238.53C120.294 235.87 122.948 233.551 126.525 232.574C128.07 232.149 129.854 232.186 130.912 232.614Z" fill="#DB2C2C"/>
<path d="M140.986 257.178C139.293 258.822 137.323 260.05 135.189 261.166C135.06 258.559 134.929 256.006 134.801 253.505C138.025 252.257 141.176 251.039 144.349 249.809C144.47 250.681 144.317 251.601 144.039 252.501C143.46 254.343 142.353 255.842 140.986 257.178Z" fill="#DB2C2C"/>
<path d="M151.481 230.627C149.723 228.351 146.44 227.905 144.184 229.634C141.887 231.399 141.445 234.664 143.198 236.939C144.939 239.217 148.221 239.643 150.54 237.902C152.796 236.204 153.22 232.889 151.481 230.627ZM148.977 235.981C147.803 236.868 146.077 236.634 145.162 235.465C144.215 234.26 144.473 232.489 145.726 231.563C146.9 230.686 148.659 230.941 149.542 232.115C150.465 233.337 150.211 235.053 148.977 235.981Z" fill="#317F8B"/>
<path d="M148.976 235.981C147.801 236.868 146.075 236.634 145.158 235.463C144.216 234.26 144.471 232.489 145.724 231.563C146.9 230.689 148.656 230.939 149.539 232.113C150.462 233.336 150.212 235.054 148.976 235.981Z" fill="#22A7F0"/>
<path d="M226.655 200.91C226.655 200.91 215.518 195.646 205.059 200.368C195.043 204.89 187.957 237.085 200.933 245.24C208.942 250.274 214.394 245.827 218.925 247.133C225.646 249.069 239.435 215.92 226.655 200.91Z" fill="white"/>
<g opacity="0.35">
<path d="M231.68 221.861C230.36 235.356 223.208 248.366 218.927 247.133C214.394 245.828 208.943 250.276 200.934 245.242C194.735 241.344 193.116 231.965 194.209 222.729C194.946 228.117 197.034 232.734 200.934 235.185C208.943 240.213 214.276 237.876 218.927 237.076C224.677 236.084 229.365 229.828 231.68 221.861Z" fill="#317F8B"/>
</g>
<path d="M209.145 249.756C206.443 249.756 203.316 249.168 199.831 246.978C196.712 245.017 194.459 241.845 193.135 237.549C192.024 233.944 191.609 229.55 191.933 224.844C192.318 219.27 193.694 213.552 195.807 208.743C197.422 205.069 200.189 200.309 204.205 198.496C215.407 193.439 227.048 198.822 227.537 199.053L227.939 199.243L228.226 199.581C234.075 206.45 234.412 215.94 233.665 222.69C232.824 230.297 230.129 238.365 226.63 243.748C223.127 249.138 220.193 249.638 218.349 249.107C217.153 248.762 215.641 249.003 213.891 249.282C212.507 249.503 210.918 249.756 209.145 249.756ZM214.591 200.45C211.456 200.45 208.55 201.048 205.91 202.24C203.739 203.221 201.433 206.192 199.588 210.392C197.688 214.716 196.399 220.086 196.051 225.128C195.436 234.029 197.617 240.728 202.033 243.504C206.486 246.303 209.921 245.755 213.241 245.225C215.387 244.883 217.415 244.56 219.498 245.16C219.737 245.201 221.454 244.542 223.875 240.364C229.521 230.623 233.102 212.226 225.377 202.596C224.502 202.234 222.249 201.381 219.301 200.87C217.68 200.59 216.109 200.45 214.591 200.45Z" fill="#317F8B"/>
</svg>
